<svg xmlns="http://www.w3.org/2000/svg" viewBox="0 0 120 120" fill="none">
  <defs>
    <linearGradient id="wg" x1="0" y1="0" x2="1" y2="0">
      <stop offset="0%" stop-color="#00c8e8"/>
      <stop offset="100%" stop-color="#0066cc"/>
    </linearGradient>
    <linearGradient id="dg" x1="0" y1="0" x2="0" y2="1">
      <stop offset="0%" stop-color="#00e5ff"/>
      <stop offset="100%" stop-color="#0099cc"/>
    </linearGradient>
    <linearGradient id="lg" x1="0" y1="0" x2="1" y2="1">
      <stop offset="0%" stop-color="#00e5ff"/>
      <stop offset="100%" stop-color="#0077aa"/>
    </linearGradient>
  </defs>
  <!-- Left leg -->
  <path d="M18 104 L50 16 L57 16 L29 104Z" fill="url(#lg)"/>
  <!-- Right leg -->
  <path d="M102 104 L70 16 L63 16 L91 104Z" fill="url(#lg)"/>
  <!-- Wave crossbar -->
  <path d="M33 62 C40 54,48 70,56 62 C64 54,72 70,80 62 C85 57,90 66,93 62 L93 71 C90 75,85 66,80 71 C72 79,64 63,56 71 C48 79,40 63,33 71Z" fill="url(#wg)"/>
  <!-- Water drop -->
  <path d="M60 4 C60 4,44 24,44 34 C44 43,51 50,60 50 C69 50,76 43,76 34 C76 24,60 4,60 4Z" fill="url(#dg)"/>
  <ellipse cx="54" cy="26" rx="4" ry="7" fill="white" opacity="0.22" transform="rotate(-20 54 26)"/>
</svg>
